<?xml version="1.0" standalone="no"?>
<!DOCTYPE svg PUBLIC "-//W3C//DTD SVG 20010904//EN"
 "http://www.w3.org/TR/2001/REC-SVG-20010904/DTD/svg10.dtd">
<svg version="1.0" xmlns="http://www.w3.org/2000/svg"
 width="500.000000pt" height="500.000000pt" viewBox="0 0 500.000000 500.000000"
 preserveAspectRatio="xMidYMid meet">
<metadata>
Created by potrace 1.15, written by Peter Selinger 2001-2017
</metadata>
<g transform="translate(0.000000,500.000000) scale(0.100000,-0.100000)"
fill="rgba(0,0,0,0.25)" stroke="none">
<path d="M667 4759 c-285 -37 -527 -250 -598 -527 -17 -69 -19 -113 -19 -529
l0 -453 155 0 155 0 0 570 0 570 600 0 600 0 0 190 0 190 -412 -1 c-227 -1
-443 -5 -481 -10z"/>
<path d="M3440 4580 l0 -190 630 0 630 0 0 -570 0 -570 125 0 126 0 -3 478 -3
477 -28 80 c-92 261 -315 440 -588 475 -46 5 -265 10 -486 10 l-403 0 0 -190z"/>
<path d="M50 1302 c0 -414 2 -455 20 -526 51 -200 198 -378 385 -467 151 -72
149 -72 653 -77 l452 -4 0 164 0 163 -600 -3 -600 -2 0 600 0 600 -155 0 -155
0 0 -448z"/>
<path d="M4700 1150 l0 -600 -630 2 -630 3 0 -163 0 -163 458 3 c504 5 506 5
647 72 193 92 331 261 385 472 18 71 20 112 20 526 l0 448 -125 0 -125 0 0
-600z"/>
</g>
</svg>
